<?xml version="1.0" encoding="UTF-8"?>
<svg version="1.1" xmlns="http://www.w3.org/2000/svg" width="2063" height="813">
<path d="M0 0 C139.92 0 279.84 0 424 0 C424 139.92 424 279.84 424 424 C284.08 424 144.16 424 0 424 C0 284.08 0 144.16 0 0 Z M128 102 C127.49017578 102.40444336 126.98035156 102.80888672 126.45507812 103.22558594 C113.84941202 113.2813664 103.69710268 124.36063233 95 138 C94.32195312 139.05445313 93.64390625 140.10890625 92.9453125 141.1953125 C74.254075 171.95948939 68.83050414 210.51215949 77.31542969 245.40332031 C84.04690974 270.93685164 96.79842089 292.08853091 115 311 C115.56847656 311.63164063 116.13695312 312.26328125 116.72265625 312.9140625 C138.92061975 336.87196684 174.91612838 349.98382423 206.89453125 351.21875 C246.88631234 352.20444977 281.85063943 336.88068165 311 310 C337.18930554 284.58697653 350.45576233 247.98889429 351.25 212 C350.37313353 174.50106316 335.86617404 140.84893141 310 114 C309.35804688 113.29488281 308.71609375 112.58976562 308.0546875 111.86328125 C284.94725864 87.20535392 249.16885145 74.27568288 215.98046875 73.03515625 C184.4488636 72.43569608 152.69474134 82.14311735 128 102 Z " fill="#000000" transform="translate(197,219)"/>
<path d="M0 0 C22.44938902 19.58717813 33.29579767 43.93929658 35.54296875 73.29296875 C36.24760348 96.41379571 27.75116844 118.99092167 13.35546875 136.84375 C12.67871094 137.68550781 12.00195312 138.52726563 11.3046875 139.39453125 C1.28973874 151.16713098 -10.67172043 158.64076058 -24.64453125 164.84375 C-25.5778125 165.26527344 -26.51109375 165.68679688 -27.47265625 166.12109375 C-49.80725717 175.19880732 -76.57648177 173.71916674 -98.64453125 164.84375 C-109.05636764 160.24441424 -118.26389321 154.6005865 -126.64453125 146.84375 C-127.42054688 146.14765625 -128.1965625 145.4515625 -128.99609375 144.734375 C-142.27901512 132.22743185 -151.25045357 115.4421415 -155.64453125 97.84375 C-155.87011719 96.95042969 -156.09570312 96.05710937 -156.328125 95.13671875 C-161.52919054 70.06399591 -156.19162917 43.39130386 -142.64453125 21.84375 C-129.24134613 2.30058846 -111.27987538 -11.22669948 -88.64453125 -18.15625 C-87.5875 -18.49527344 -86.53046875 -18.83429688 -85.44140625 -19.18359375 C-55.8500393 -27.09163147 -23.4355709 -19.10847139 0 0 Z M-136.23828125 60.01171875 C-140.73805508 65.8739241 -141.31426824 71.26890921 -141.11328125 78.5546875 C-140.19954027 84.9661034 -137.29768277 89.6327904 -132.34765625 93.7578125 C-125.54593573 98.44788776 -119.88224598 99.77103202 -111.64453125 98.84375 C-104.25586002 96.58492765 -99.40664836 92.55455349 -95.64453125 85.84375 C-92.76619474 79.77939273 -92.53188911 73.012637 -94.26171875 66.53125 C-97.23287694 59.80013055 -102.95650458 54.71132322 -109.70703125 51.90625 C-119.75738738 48.78380926 -129.35058288 52.29554723 -136.23828125 60.01171875 Z " fill="#000000" transform="translate(470.64453125,356.15625)"/>
<path d="M0 0 C15.51 0 31.02 0 47 0 C53.24806119 25.45126779 53.24806119 25.45126779 55.94921875 36.45898438 C57.77876834 43.914722 59.60844468 51.37042833 61.43896484 58.82592773 C62.91787668 64.84940525 64.39614591 70.87304016 65.87400436 76.8967762 C66.43262097 79.17323266 66.99145345 81.44963615 67.55052567 83.72598076 C71.41755397 99.47200018 75.2314627 115.23011312 79 131 C78.75686096 120.12120334 78.51337842 109.24241443 78.26950932 98.36363411 C78.15616197 93.30687931 78.0429138 88.25012235 77.92993164 83.19335938 C77.3102343 55.4616557 76.66795772 27.73058404 76 0 C87.22 0 98.44 0 110 0 C110 63.69 110 127.38 110 193 C94.82 193 79.64 193 64 193 C57.27080991 165.47782131 50.69201863 137.92323865 44.18365479 110.34814453 C42.91695876 104.98253416 41.64883765 99.6172606 40.38085938 94.25195312 C37.91922867 83.83495266 35.45909536 73.41759925 33 63 C32.89361494 95.02919309 32.89361494 95.02919309 33.42752075 127.05221558 C34.03218771 149.03739708 34.10893022 171.00819902 34 193 C22.78 193 11.56 193 0 193 C0 129.31 0 65.62 0 0 Z M31 54 C32 58 32 58 32 58 Z " fill="#000000" transform="translate(1437,221)"/>
<path d="M0 0 C87.90886076 0 87.90886076 0 97 7 C108.48743044 18.73879653 107.18684049 34.52562778 107.18530273 49.81396484 C107.18748343 52.23162615 107.20568747 54.6488255 107.22460938 57.06640625 C107.33325194 86.3626864 107.33325194 86.3626864 98.3984375 95.66796875 C95.43190449 98.41099585 92.48418741 100.30067443 88.86645508 102.08886719 C88.14323563 102.44728699 87.42001617 102.80570679 86.67488098 103.17498779 C86.12217026 103.44724182 85.56945953 103.71949585 85 104 C85.36331421 105.0855014 85.72662842 106.17100281 86.10095215 107.28939819 C89.51822485 117.50073848 92.93235837 127.71312355 96.34339142 137.92654991 C98.09729375 143.17780307 99.85231451 148.42867697 101.60986328 153.67871094 C103.30476348 158.74174024 104.99676233 163.80573043 106.6867218 168.87041092 C107.3331955 170.80612596 107.98072823 172.74148763 108.62931824 174.6764946 C109.53495053 177.37895274 110.43686809 180.08262315 111.33789062 182.78662109 C111.60906204 183.59294479 111.88023346 184.39926849 112.15962219 185.23002625 C114 190.77189568 114 190.77189568 114 193 C101.46 193 88.92 193 76 193 C69.1101957 172.50070572 62.33889123 151.97276909 55.75 131.375 C55.41249725 130.3231955 55.07499451 129.27139099 54.7272644 128.18771362 C53.76810109 125.1964658 52.81302746 122.20394618 51.859375 119.2109375 C51.56932083 118.30733994 51.27926666 117.40374237 50.98042297 116.47276306 C50.71843613 115.64692215 50.45644928 114.82108124 50.18652344 113.97021484 C49.95624451 113.24828949 49.72596558 112.52636414 49.4887085 111.78256226 C49 110 49 110 49 108 C45.04 108 41.08 108 37 108 C37 136.05 37 164.1 37 193 C24.79 193 12.58 193 0 193 C0 129.31 0 65.62 0 0 Z M37 29 C37 45.5 37 62 37 79 C53.90309764 80.51576811 53.90309764 80.51576811 67.875 74.5 C71.5743268 69.56756427 70.3048752 61.5004348 70.35009766 55.5769043 C70.3666448 53.98918995 70.39391908 52.40154973 70.43212891 50.81420898 C70.48712645 48.51507269 70.50880316 46.21767574 70.5234375 43.91796875 C70.54610687 43.21463913 70.56877625 42.51130951 70.59213257 41.78666687 C70.57586228 37.95852077 69.99773333 35.52225889 67.65478516 32.56762695 C59.32633765 24.51260742 49.84451887 29 37 29 Z " fill="#000000" transform="translate(1168,450)"/>
<path d="M0 0 C8.21032435 7.87942966 10.95000675 18.19501498 11.31845093 29.36010742 C11.33601407 31.62932785 11.33762924 33.8987118 11.32568359 36.16796875 C11.33094055 37.41840973 11.33619751 38.66885071 11.34161377 39.95718384 C11.35246835 43.34992932 11.350047 46.74211758 11.34047651 50.13483047 C11.33280738 53.70862754 11.33994543 57.28240304 11.34463501 60.85620117 C11.35007168 66.85437218 11.34295619 72.85243188 11.32861328 78.85058594 C11.31229074 85.75574892 11.31758074 92.66064602 11.3340925 99.56580257 C11.34776731 105.5262906 11.34959792 111.48669924 11.34177649 117.44719791 C11.33713271 120.99319367 11.3363831 124.53906504 11.34638596 128.08505249 C11.35677248 132.04248142 11.34232088 135.99961969 11.32568359 139.95703125 C11.33175629 141.11063141 11.33782898 142.26423157 11.34408569 143.45278931 C11.2504927 155.54533885 9.13313526 165.88338851 0.9375 175.0625 C-1.56687656 177.38656144 -4.15590841 179.27339411 -7.0625 181.0625 C-7.65417969 181.44019531 -8.24585938 181.81789063 -8.85546875 182.20703125 C-24.53368385 191.13258228 -49.10167172 190.63161484 -66.09765625 186.09375 C-76.75711227 182.38611312 -86.23189732 177.28277268 -91.69140625 166.9921875 C-94.48263103 160.51909071 -96.17743966 154.68171632 -96.20967102 147.61340332 C-96.21682632 146.53147705 -96.22398163 145.44955078 -96.23135376 144.33483887 C-96.23404266 143.15764282 -96.23673157 141.98044678 -96.23950195 140.76757812 C-96.24607315 139.51976562 -96.25264435 138.27195312 -96.25941467 136.98632812 C-96.27912891 132.85546627 -96.29081461 128.72464323 -96.30078125 124.59375 C-96.30483205 123.16605104 -96.30894907 121.73835227 -96.31313133 120.31065369 C-96.3321728 113.59747058 -96.34640292 106.88429836 -96.3547433 100.17109346 C-96.36449548 92.45109459 -96.39076619 84.73138397 -96.43124419 77.01148653 C-96.46153549 71.02651636 -96.47622464 65.04162818 -96.47952431 59.05658293 C-96.48186107 55.49080299 -96.49063912 51.92533131 -96.51598549 48.3596344 C-96.54388432 44.37043543 -96.53939567 40.38186885 -96.5324707 36.39257812 C-96.54528076 35.23157593 -96.55809082 34.07057373 -96.57128906 32.87438965 C-96.49858801 21.3105458 -93.8274933 9.9444993 -86.0625 1.0625 C-78.49634119 -6.20433824 -68.32356759 -10.33885541 -58.0625 -11.9375 C-57.05703125 -12.10378906 -57.05703125 -12.10378906 -56.03125 -12.2734375 C-36.34890277 -14.99077648 -15.98255483 -12.60692902 0 0 Z M-56.4375 21.3125 C-60.38623998 27.99498304 -60.35301597 35.15327642 -60.32128906 42.69433594 C-60.3247937 43.72961426 -60.32829834 44.76489258 -60.33190918 45.83154297 C-60.34067453 49.23672291 -60.33489389 52.64169312 -60.328125 56.046875 C-60.32947355 58.42808064 -60.33141567 60.80928602 -60.33392334 63.19049072 C-60.33686792 68.17682522 -60.33259983 73.16308793 -60.32324219 78.14941406 C-60.31187298 84.51535667 -60.3183954 90.88113015 -60.33038712 97.2470665 C-60.33764487 102.16466525 -60.33529943 107.08222452 -60.33013153 111.99982452 C-60.32880456 114.3455838 -60.33040909 116.69134676 -60.33509064 119.03710175 C-60.34021764 122.32919174 -60.33235848 125.62101555 -60.32128906 128.91308594 C-60.32533752 129.86725403 -60.32938599 130.82142212 -60.33355713 131.80450439 C-60.41351878 144.20779286 -60.41351878 144.20779286 -55.6875 155.1875 C-49.56041267 159.56399095 -44.50248074 159.70078253 -37.0625 159.0625 C-31.67326351 157.23400905 -28.60141794 154.14033589 -26.0625 149.0625 C-25.95418197 147.52242738 -25.90724962 145.97784122 -25.89082336 144.43405151 C-25.87814423 143.45840744 -25.86546509 142.48276337 -25.85240173 141.47755432 C-25.84350418 140.40327682 -25.83460663 139.32899933 -25.82543945 138.22216797 C-25.81232727 137.0935585 -25.79921509 135.96494904 -25.78570557 134.80213928 C-25.74376424 131.05302377 -25.70933594 127.30388688 -25.67578125 123.5546875 C-25.65013202 120.95354076 -25.624348 118.35239534 -25.59843445 115.75125122 C-25.54538558 110.28862027 -25.49644063 104.82597135 -25.44995117 99.36328125 C-25.39618373 93.06147586 -25.3310782 86.75985726 -25.26061279 80.45821846 C-25.1933116 74.38852713 -25.13752002 68.31878042 -25.085989 62.2489357 C-25.06260664 59.67096845 -25.03585982 57.09302942 -25.00567055 54.5151329 C-24.9644033 50.903163 -24.93628556 47.29131401 -24.91137695 43.67919922 C-24.89640671 42.61706711 -24.88143646 41.554935 -24.86601257 40.46061707 C-24.83034209 32.07009356 -25.45551803 24.75972846 -31.0625 18.0625 C-39.58841088 12.11419009 -49.27505171 14.52702267 -56.4375 21.3125 Z " fill="#000000" transform="translate(1854.0625,229.9375)"/>
<path d="M0 0 C7.08059985 6.67366882 11.68231726 14.76454765 12.17328358 24.61473274 C12.17755706 25.5913732 12.18183054 26.56801365 12.18623352 27.57424927 C12.19338882 28.70113663 12.20054413 29.82802399 12.20791626 30.98905945 C12.21060516 32.21615128 12.21329407 33.4432431 12.21606445 34.70751953 C12.22263565 36.00731247 12.22920685 37.30710541 12.23597717 38.64628601 C12.25695264 42.9490741 12.26737497 47.25186226 12.27734375 51.5546875 C12.28139405 53.04062798 12.28551105 54.52656828 12.28969383 56.01250839 C12.30873294 62.99692699 12.32296541 69.98133512 12.3313058 76.96577466 C12.34106707 85.005571 12.3673627 93.04509122 12.40780669 101.08479035 C12.43805574 107.31346392 12.45278305 113.54205874 12.45608681 119.77080429 C12.4584277 123.48406814 12.46726133 127.1970366 12.49254799 130.9102211 C12.52035414 135.06027593 12.51597087 139.20972096 12.5090332 143.35986328 C12.52184326 144.57480972 12.53465332 145.78975616 12.54785156 147.04151917 C12.48116643 158.02609328 9.8443088 167.70815722 2.20703125 175.8828125 C-11.49654524 189.1666398 -29.51679681 189.51311597 -47.5390625 189.234375 C-61.22903755 188.75374393 -74.49128776 185.0861708 -84.8359375 175.671875 C-94.4192658 165.19226419 -95.26947078 152.01689562 -95.21972656 138.44897461 C-95.2232312 137.25398849 -95.22673584 136.05900238 -95.23034668 134.82780457 C-95.23758597 131.58403001 -95.23596681 128.34042161 -95.22958851 125.09664989 C-95.22447953 121.68207023 -95.22923333 118.26750068 -95.23236084 114.85292053 C-95.23598585 109.1228744 -95.23123954 103.39288005 -95.22167969 97.6628418 C-95.21079274 91.0616084 -95.21432835 84.46049855 -95.2253325 77.85926813 C-95.23444111 72.16465898 -95.23567341 66.47008678 -95.23045516 60.7754727 C-95.22735569 57.38604527 -95.22686999 53.99667571 -95.23352814 50.60725212 C-95.2386307 46.82654445 -95.2308308 43.04607116 -95.21972656 39.26538086 C-95.22579926 37.60599487 -95.22579926 37.60599487 -95.23199463 35.91308594 C-95.16033985 22.68401458 -92.55930887 9.68537964 -82.9609375 -0.078125 C-61.09992401 -16.71401049 -21.58849887 -17.85056091 0 0 Z M-55.3984375 22.484375 C-57.67514418 26.03603742 -58.08746175 28.71048218 -58.10137939 32.83589172 C-58.10708954 33.8494574 -58.11279968 34.86302307 -58.11868286 35.90730286 C-58.11980072 37.01853012 -58.12091858 38.12975739 -58.12207031 39.2746582 C-58.12703522 40.44564056 -58.13200012 41.61662292 -58.13711548 42.8230896 C-58.14922367 46.03602816 -58.15668223 49.24893034 -58.16112614 52.4618876 C-58.16405895 54.47022739 -58.16816417 56.4785615 -58.17263031 58.48689842 C-58.18630262 64.77346244 -58.19597039 71.06001344 -58.1998322 77.34659129 C-58.20431144 84.59799826 -58.22185403 91.84921659 -58.2508328 99.10056621 C-58.27246677 104.70917054 -58.28253741 110.31772186 -58.28387332 115.92636746 C-58.28492021 119.27451843 -58.29225268 122.62235112 -58.30869293 125.97048378 C-58.32573269 129.70743758 -58.3238779 133.4439314 -58.31738281 137.1809082 C-58.3265976 138.28606277 -58.33581238 139.39121735 -58.3453064 140.52986145 C-58.31515796 146.06256213 -58.17574811 150.19013741 -54.9609375 154.921875 C-49.34973004 159.98564759 -45.66815834 160.26880347 -38.23828125 160.203125 C-33.63910463 159.80844 -31.54749825 158.80671734 -27.9609375 155.921875 C-24.63751373 151.49064331 -23.8395768 147.49709789 -23.82049561 142.05291748 C-23.81478546 141.07452408 -23.80907532 140.09613068 -23.80319214 139.08808899 C-23.80207428 138.02100204 -23.80095642 136.9539151 -23.79980469 135.85449219 C-23.79483978 134.72559067 -23.78987488 133.59668915 -23.78475952 132.43357849 C-23.77014317 128.69529614 -23.76333656 124.95705624 -23.7578125 121.21875 C-23.75206039 118.62046304 -23.74630267 116.02217609 -23.74053955 113.42388916 C-23.73137395 108.66980414 -23.7250732 103.91573608 -23.7220428 99.16164374 C-23.71756604 92.17797601 -23.70003313 85.19450438 -23.6710422 78.21089625 C-23.64676348 72.15072907 -23.63909568 66.09065419 -23.63736725 60.03043365 C-23.63434301 57.45807071 -23.62632223 54.88570854 -23.61318207 52.31337738 C-23.59609475 48.71104656 -23.59800879 45.10919104 -23.60449219 41.50683594 C-23.5952774 40.44784592 -23.58606262 39.3888559 -23.5765686 38.29777527 C-23.61255605 31.9025853 -23.82721883 25.3641664 -28.37751389 20.36581039 C-32.9155036 16.40670586 -36.73356093 15.56488149 -42.546875 15.640625 C-47.87689475 16.26159817 -51.74977753 18.64860426 -55.3984375 22.484375 Z " fill="#000000" transform="translate(890.9609375,229.078125)"/>
<path d="M0 0 C1.03125 0.5775 2.0625 1.155 3.125 1.75 C10.73886014 7.70867315 16.50954673 15.30691967 18 25 C18.13540246 28.29866841 18.11628087 31.59357683 18.09765625 34.89453125 C18.0962413 35.84188644 18.09482635 36.78924164 18.09336853 37.76530457 C18.08778611 40.78106895 18.07523682 43.79675818 18.0625 46.8125 C18.05748273 48.86132705 18.05292022 50.91015527 18.04882812 52.95898438 C18.03867478 57.97270826 18.01909588 62.98627033 18 68 C6.12 68 -5.76 68 -18 68 C-18.3125 51.5 -18.3125 51.5 -18.38793945 46.34179688 C-18.42027491 44.96742131 -18.45365497 43.59306976 -18.48828125 42.21875 C-18.49452515 41.52555664 -18.50076904 40.83236328 -18.50720215 40.11816406 C-18.67533711 34.3057893 -19.66493018 28.26209889 -24 24.0625 C-29.94153691 21.95820568 -36.30896423 21.15861789 -42.4375 22.9375 C-46.19271768 24.75104071 -47.4788577 26.85857946 -49.20128059 30.56726265 C-50.73074492 35.22570085 -50.54524512 39.92128448 -50.50170898 44.78100586 C-50.50711197 45.9381459 -50.51251495 47.09528595 -50.51808167 48.28749084 C-50.53054661 52.09687197 -50.51409052 55.90549401 -50.49609375 59.71484375 C-50.4962488 62.37228923 -50.49768528 65.02970785 -50.50050354 67.68714905 C-50.50319967 73.25107606 -50.48978316 78.81478662 -50.46655273 84.37866211 C-50.43995969 90.79189889 -50.43819389 97.20477369 -50.4499411 103.6180467 C-50.46075869 109.8106685 -50.4544999 116.00316062 -50.44038582 122.19577217 C-50.43588037 124.82032455 -50.43552657 127.44488753 -50.43945122 130.06944084 C-50.44237304 133.74304631 -50.42580831 137.41606804 -50.40405273 141.08959961 C-50.41080521 142.70534378 -50.41080521 142.70534378 -50.41769409 144.35372925 C-50.35869497 150.37304894 -50.19564642 156.70525925 -47 162 C-41.51812732 165.25899287 -35.07109174 165.97434292 -28.89453125 164.49609375 C-25.29657285 163.34920355 -23.41670175 162.53767968 -21.0625 159.5 C-19.06098475 154.79055234 -18.78989255 150.6624901 -18.68359375 145.61328125 C-18.6524221 144.38776802 -18.6524221 144.38776802 -18.62062073 143.13749695 C-18.55526921 140.52924966 -18.49630727 137.92090225 -18.4375 135.3125 C-18.39430108 133.54360946 -18.35068635 131.77472903 -18.30664062 130.00585938 C-18.19882044 125.67067403 -18.09964028 121.33541198 -18 117 C-6.12 117 5.76 117 18 117 C18.04616141 122.5137235 18.08591122 128.02676387 18.10986328 133.54052734 C18.11985894 135.41229538 18.13345997 137.28404805 18.15087891 139.15576172 C18.17541268 141.86169246 18.18654768 144.56741499 18.1953125 147.2734375 C18.20563507 148.09677582 18.21595764 148.92011414 18.22659302 149.7684021 C18.22806293 157.55353291 17.30140794 165.34605819 13.625 172.3125 C13.22539063 173.09238281 12.82578125 173.87226563 12.4140625 174.67578125 C5.73849804 185.6480488 -4.93748792 190.02436705 -17 193 C-34.35533466 196.89762662 -57.14875113 195.01633277 -72.3984375 185.50390625 C-81.56899513 178.90780749 -85.84168791 170.95086712 -88 160 C-88.38399274 155.85627374 -88.40127094 151.74989443 -88.37231445 147.59057617 C-88.37596512 146.40201523 -88.37961578 145.21345428 -88.38337708 143.98887634 C-88.3900447 140.76127931 -88.3834398 137.53406664 -88.37004495 134.30650115 C-88.35861713 130.9044738 -88.36284682 127.50245916 -88.36479187 124.10041809 C-88.36567166 118.38712616 -88.35466376 112.67395358 -88.33618164 106.96069336 C-88.31504935 100.39134252 -88.31149961 93.82216667 -88.3177436 87.25278872 C-88.3234759 80.89201157 -88.31774448 74.53129493 -88.30657005 68.1705265 C-88.30197175 65.48308847 -88.30155933 62.79575034 -88.3031559 60.10829735 C-88.3072434 18.95232151 -88.3072434 18.95232151 -76.97265625 6.84765625 C-58.39341204 -10.55428932 -21.9735141 -12.36010168 0 0 Z " fill="#000000" transform="translate(1399,224)"/>
<path d="M0 0 C0.61230469 0.37898437 1.22460938 0.75796875 1.85546875 1.1484375 C8.08709613 5.66596686 12.0588446 13.72550231 14 21 C14.2658712 24.47900316 14.23307272 27.94230128 14.1953125 31.4296875 C14.1924826 32.42001984 14.18965271 33.41035217 14.18673706 34.43069458 C14.1755847 37.57892176 14.15048907 40.72685949 14.125 43.875 C14.11496382 46.01562088 14.10583908 48.15624624 14.09765625 50.296875 C14.0773672 55.53144995 14.03820874 60.76540277 14 66 C2.45 66 -9.1 66 -21 66 C-21.12375 61.978125 -21.2475 57.95625 -21.375 53.8125 C-21.1351511 38.11325188 -21.1351511 38.11325188 -26.1875 23.8125 C-32.7874167 19.55922035 -38.54206361 19.74645891 -46 21 C-46.969375 21.144375 -47.93875 21.28875 -48.9375 21.4375 C-52.56272476 24.18388239 -53.07386293 28.69366423 -54 33 C-54.39275333 36.88714468 -54.41110244 40.73622719 -54.38818359 44.64086914 C-54.39606903 46.31849586 -54.39606903 46.31849586 -54.40411377 48.03001404 C-54.41723441 51.69854009 -54.40860415 55.36662638 -54.3984375 59.03515625 C-54.40046036 61.60005272 -54.40337357 64.16494863 -54.40713501 66.72984314 C-54.41154751 72.09347572 -54.4054509 77.45694527 -54.39111328 82.82055664 C-54.37478201 89.00093266 -54.38008629 95.18101177 -54.3965925 101.36138064 C-54.41190142 107.33508749 -54.4102121 113.30865034 -54.4014473 119.28237724 C-54.3994517 121.81203694 -54.40188197 124.34170427 -54.40888596 126.87135506 C-54.41653657 130.41061375 -54.40484527 133.94930851 -54.38818359 137.48852539 C-54.39425629 138.52514313 -54.40032898 139.56176086 -54.40658569 140.62979126 C-54.34926949 147.22876299 -54.02077467 154.39061731 -49.59917259 159.6737833 C-45.30892052 163.2317507 -39.32299461 163.47526738 -34 163 C-29.33533213 161.44511071 -26.55672765 160.21180518 -24 156 C-21.64723444 146.98863226 -21.60929628 137.44553444 -21.375 128.1875 C-21.25125 123.835625 -21.1275 119.48375 -21 115 C-9.45 115 2.1 115 14 115 C14.09250058 120.88663437 14.17193257 126.77068497 14.21972656 132.6574707 C14.23967719 134.65430305 14.26684772 136.65107824 14.30175781 138.64770508 C14.77651134 166.52551145 14.77651134 166.52551145 5.6796875 177.296875 C-4.9392168 188.06395006 -19.33010908 192.14262444 -34.14355469 192.38037109 C-51.80293506 192.34716542 -68.65878207 190.61799452 -82.375 178.375 C-90.22552997 169.68589598 -91.74041401 159.7645891 -91.61523438 148.43554688 C-91.62078339 147.13633804 -91.6263324 145.83712921 -91.63204956 144.49855042 C-91.64616144 140.97141878 -91.62937203 137.4450796 -91.60576439 133.91802406 C-91.58547565 130.20410263 -91.59154422 126.4902084 -91.59387207 122.77624512 C-91.59381869 116.54259371 -91.57417805 110.30924734 -91.54199219 104.07568359 C-91.5051078 96.897848 -91.49631878 89.72041136 -91.5032897 82.54249334 C-91.50962381 75.60022003 -91.49878692 68.6580816 -91.47932434 61.71583557 C-91.47120999 58.77834633 -91.46842967 55.8409266 -91.47001648 52.90342712 C-91.47106936 48.79023615 -91.4467352 44.67755685 -91.41992188 40.56445312 C-91.42285248 39.36409927 -91.42578308 38.16374542 -91.42880249 36.92701721 C-91.30290308 24.33612686 -89.09373683 13.80311051 -80.4765625 4.32421875 C-73.31874834 -2.4320595 -63.67441518 -6.62559046 -54 -8 C-53.34257813 -8.10957031 -52.68515625 -8.21914062 -52.0078125 -8.33203125 C-34.39974579 -10.8237388 -15.33864105 -9.54078151 0 0 Z " fill="#000000" transform="translate(1725,226)"/>
<path d="M0 0 C13.86 0 27.72 0 42 0 C46.42120565 23.5388618 50.83814659 47.07851082 55.24733639 70.61962605 C57.29484527 81.55073267 59.34425783 92.4814759 61.39819336 103.41137695 C63.1888993 112.94054356 64.97599141 122.47037964 66.75879103 132.00102872 C67.70243523 137.04495438 68.64785591 142.08853207 69.59760857 147.13131142 C70.49259771 151.88363426 71.38272984 156.63684181 72.26924324 161.39075279 C72.59437963 163.12964295 72.92124601 164.86821072 73.25003052 166.60641479 C73.70111855 168.99267079 74.14577392 171.38004469 74.588974 173.76777649 C74.7183534 174.44388782 74.8477328 175.11999916 74.98103279 175.81659871 C76.03885393 181.57781608 76.46228003 187.08508034 77 193 C64.79 193 52.58 193 40 193 C39.01 186.44125 39.01 186.44125 38 179.75 C37.68675781 177.69023926 37.68675781 177.69023926 37.3671875 175.58886719 C37.20476562 174.50250977 37.04234375 173.41615234 36.875 172.296875 C36.70742187 171.18666992 36.53984375 170.07646484 36.3671875 168.93261719 C36 166 36 166 36 162 C25.44 162 14.88 162 4 162 C3.71125 164.5575 3.4225 167.115 3.125 169.75 C0.85967853 189.28064294 0.85967853 189.28064294 -1 193 C-12.88 193 -24.76 193 -37 193 C-35.87500391 181.75003913 -35.87500391 181.75003913 -34.7744751 176.12597656 C-34.52790161 174.85402435 -34.28132813 173.58207214 -34.02728271 172.27157593 C-33.75557807 170.89457553 -33.48378562 169.51759245 -33.21191406 168.140625 C-32.9239224 166.66419016 -32.6363362 165.18767619 -32.34912109 163.71109009 C-31.57195326 159.72165547 -30.78918113 155.7333392 -30.00539112 151.74520111 C-29.17958468 147.53798245 -28.35909212 143.32972765 -27.5380249 139.12158203 C-25.97872481 131.13399973 -24.4148332 123.14732385 -22.84921241 115.16097832 C-20.9139035 105.28774907 -18.98418643 95.41342853 -17.0546875 85.5390625 C-16.37144229 82.04263475 -15.68815838 78.54621457 -15.00482178 75.04980469 C-14.83848165 74.1986911 -14.67214153 73.34757751 -14.50076079 72.47067261 C-13.37340405 66.70317632 -12.24446919 60.93599046 -11.11480713 55.16894531 C-10.65937304 52.84323379 -10.20398069 50.51751409 -9.74862242 48.19178772 C-9.45570387 46.69591095 -9.16269999 45.20005088 -8.86960649 43.70420837 C-7.39398327 36.17186256 -5.92685871 28.63812806 -4.48815918 21.09863281 C-4.25621731 19.88378204 -4.02427544 18.66893127 -3.78530502 17.41726685 C-3.35764961 15.17192978 -2.9318177 12.92624431 -2.50818253 10.68014526 C-2.32225414 9.70304596 -2.13632576 8.72594666 -1.94476318 7.71923828 C-1.78518002 6.87402618 -1.62559685 6.02881409 -1.46117783 5.1579895 C-1 3 -1 3 0 0 Z M20 56 C18.56220927 65.18761306 17.12768614 74.37572859 15.69733429 83.56450272 C15.03306578 87.83117793 14.36767221 92.09767135 13.69970703 96.36376953 C13.05515187 100.48062551 12.41355266 104.59793225 11.77400208 108.71556854 C11.52945723 110.2866025 11.28384695 111.85747099 11.03715515 113.42816925 C10.69187164 115.62779133 10.35037756 117.8279707 10.00976562 120.02832031 C9.81435181 121.28074524 9.61893799 122.53317017 9.41760254 123.82354736 C8.91310228 127.1270147 8.91310228 127.1270147 9 131 C16.59 131 24.18 131 32 131 C30.08529875 115.43646509 28.08610415 99.89103824 25.89282227 84.36425781 C25.58380971 82.16587789 25.27859805 79.96696099 24.97680664 77.76757812 C24.53296424 74.53397031 24.07833963 71.30204869 23.62109375 68.0703125 C23.48771103 67.08410919 23.35432831 66.09790588 23.21690369 65.08181763 C23.08659256 64.17841644 22.95628143 63.27501526 22.82202148 62.34423828 C22.65572487 61.15376389 22.65572487 61.15376389 22.48606873 59.9392395 C22.12099954 57.77835165 22.12099954 57.77835165 20 56 Z " fill="#000000" transform="translate(1387,450)"/>
<path d="M0 0 C87.28428928 0 87.28428928 0 96.7265625 8.56640625 C105.44372505 17.8203399 105.15621094 30.36325144 105.16796875 42.328125 C105.17296135 44.10530914 105.17296135 44.10530914 105.17805481 45.918396 C105.18310534 48.41971449 105.18546372 50.92103969 105.18530273 53.42236328 C105.18748456 57.22309647 105.20564783 61.02353702 105.22460938 64.82421875 C105.22754472 67.26301985 105.22952857 69.70182232 105.23046875 72.140625 C105.23765427 73.26494934 105.24483978 74.38927368 105.25224304 75.54766846 C105.22014992 86.78960952 104.30712474 97.02406406 97 106 C89.36518925 112.84721975 79.5217623 113.30902888 69.71484375 113.1953125 C68.46048523 113.19229126 68.46048523 113.19229126 67.18078613 113.18920898 C64.0996338 113.17885781 61.01856055 113.15093659 57.9375 113.125 C51.028125 113.08375 44.11875 113.0425 37 113 C37 139.4 37 165.8 37 193 C24.79 193 12.58 193 0 193 C0 129.31 0 65.62 0 0 Z M37 30 C37 48.15 37 66.3 37 85 C56.89909707 86.44437076 56.89909707 86.44437076 66 82 C69.71535528 77.85306784 69.43800332 73.44402782 69.3984375 68.15625 C69.40274277 66.88618103 69.40274277 66.88618103 69.40713501 65.5904541 C69.40917104 63.80525033 69.4036735 62.02002402 69.39111328 60.23486328 C69.37505262 57.50893062 69.39097718 54.78448053 69.41015625 52.05859375 C69.40817374 50.32030924 69.40432989 48.58202565 69.3984375 46.84375 C69.40451019 46.03216431 69.41058289 45.22057861 69.4168396 44.38439941 C69.35976579 39.77157134 69.00820855 36.72258357 66 33 C59.5 27.5 59.5 27.5 37 30 Z " fill="#000000" transform="translate(673,221)"/>
<path d="M0 0 C31.02 0 62.04 0 94 0 C94 9.9 94 19.8 94 30 C74.86 30 55.72 30 36 30 C36 44.52 36 59.04 36 74 C54.15 74 72.3 74 91 74 C91 83.9 91 93.8 91 104 C72.85 104 54.7 104 36 104 C36 123.14 36 142.28 36 162 C56.13 162 76.26 162 97 162 C97 172.23 97 182.46 97 193 C64.99 193 32.98 193 0 193 C0 129.31 0 65.62 0 0 Z " fill="#000000" transform="translate(993,450)"/>
<path d="M0 0 C30.69 0 61.38 0 93 0 C93 9.9 93 19.8 93 30 C74.19 30 55.38 30 36 30 C36 44.52 36 59.04 36 74 C53.82 74 71.64 74 90 74 C90 84.23 90 94.46 90 105 C72.18 105 54.36 105 36 105 C36 124.14 36 143.28 36 163 C55.8 163 75.6 163 96 163 C96 172.9 96 182.8 96 193 C64.32 193 32.64 193 0 193 C0 129.31 0 65.62 0 0 Z " fill="#000000" transform="translate(1200,221)"/>
<path d="M0 0 C35.31 0 70.62 0 107 0 C107 9.57 107 19.14 107 29 C95.45 29 83.9 29 72 29 C72 83.12 72 137.24 72 193 C59.79 193 47.58 193 35 193 C35 138.88 35 84.76 35 29 C23.45 29 11.9 29 0 29 C0 19.43 0 9.86 0 0 Z " fill="#000000" transform="translate(1079,221)"/>
<path d="M0 0 C11.88 0 23.76 0 36 0 C36 53.79 36 107.58 36 163 C53.16 163 70.32 163 88 163 C88 172.9 88 182.8 88 193 C58.96 193 29.92 193 0 193 C0 129.31 0 65.62 0 0 Z " fill="#000000" transform="translate(891,450)"/>
<path d="M0 0 C11.88 0 23.76 0 36 0 C36 53.79 36 107.58 36 163 C53.16 163 70.32 163 88 163 C88 172.9 88 182.8 88 193 C58.96 193 29.92 193 0 193 C0 129.31 0 65.62 0 0 Z " fill="#000000" transform="translate(928,221)"/>
<path d="M0 0 C11.88 0 23.76 0 36 0 C36 63.69 36 127.38 36 193 C24.12 193 12.24 193 0 193 C0 129.31 0 65.62 0 0 Z " fill="#000000" transform="translate(1298,450)"/>
<path d="M0 0 C11.88 0 23.76 0 36 0 C36 63.69 36 127.38 36 193 C24.12 193 12.24 193 0 193 C0 129.31 0 65.62 0 0 Z " fill="#000000" transform="translate(1106,450)"/>
<path d="M0 0 C11.88 0 23.76 0 36 0 C36 63.69 36 127.38 36 193 C24.12 193 12.24 193 0 193 C0 129.31 0 65.62 0 0 Z " fill="#000000" transform="translate(1573,221)"/>
<path d="M0 0 C11.88 0 23.76 0 36 0 C36 63.69 36 127.38 36 193 C24.12 193 12.24 193 0 193 C0 129.31 0 65.62 0 0 Z " fill="#000000" transform="translate(1030,221)"/>
<path d="M0 0 C52.92307692 0 52.92307692 0 60.8515625 7.828125 C66.77468976 14.21437743 68.30094953 19.61450875 68.29052734 28.32519531 C68.29724457 29.13906204 68.30396179 29.95292877 68.31088257 30.79145813 C68.32981163 33.47040997 68.33378443 36.14911052 68.3359375 38.828125 C68.34236987 40.70131531 68.34909855 42.57450463 68.35610962 44.44769287 C68.36807032 48.37156501 68.37179178 52.2953492 68.37060547 56.21923828 C68.37040256 61.2269561 68.39768124 66.23410464 68.43214989 71.24168777 C68.45448063 75.11094713 68.45844109 78.98007094 68.45738602 82.84938812 C68.45973358 84.69442452 68.46850912 86.53946513 68.48405075 88.38443756 C68.64057954 108.88874429 68.64057954 108.88874429 62.17578125 117.40234375 C61.56089844 117.90894531 60.94601562 118.41554688 60.3125 118.9375 C59.71050781 119.46214844 59.10851562 119.98679687 58.48828125 120.52734375 C41.34431897 130.67377041 17.43133009 125 0 125 C0 83.75 0 42.5 0 0 Z M23 19 C23 47.71 23 76.42 23 106 C36.03103721 107.04349839 36.03103721 107.04349839 43 103 C45.1190723 98.70941855 45.2566647 94.72204629 45.2746582 89.98828125 C45.27976913 89.31429291 45.28488007 88.64030457 45.29014587 87.94589233 C45.30396071 85.73466935 45.30309161 83.52376081 45.30078125 81.3125 C45.30467204 79.76603074 45.3090075 78.21956254 45.31376648 76.6730957 C45.32121078 73.43860401 45.32095 70.20422151 45.31567383 66.96972656 C45.30987497 62.83381575 45.32682863 58.69835215 45.3500185 54.56251526 C45.36477874 51.37110806 45.36562456 48.17980809 45.36250877 44.9883728 C45.36302062 43.4638073 45.36823263 41.93923558 45.37832069 40.41470337 C45.39071577 38.28008245 45.38387658 36.14632676 45.37231445 34.01171875 C45.37294388 32.79959717 45.3735733 31.58747559 45.3742218 30.33862305 C44.94426273 26.50273948 44.19314632 24.18214499 42 21 C34.99861207 18.31483984 34.99861207 18.31483984 23 19 Z " fill="#000000" transform="translate(674,518)"/>
<path d="M0 0 C20.13 0 40.26 0 61 0 C61 6.6 61 13.2 61 20 C48.79 20 36.58 20 24 20 C24 29.24 24 38.48 24 48 C35.55 48 47.1 48 59 48 C59 54.6 59 61.2 59 68 C47.45 68 35.9 68 24 68 C24 80.21 24 92.42 24 105 C36.87 105 49.74 105 63 105 C63 111.6 63 118.2 63 125 C42.21 125 21.42 125 0 125 C0 83.75 0 42.5 0 0 Z " fill="#000000" transform="translate(757,518)"/>
<path d="M0 0 C14.19 0 28.38 0 43 0 C41.35745702 3.28508596 40.26413498 5.01406409 37.83984375 7.57421875 C37.21529297 8.23744141 36.59074219 8.90066406 35.94726562 9.58398438 C35.28404297 10.27814453 34.62082031 10.97230469 33.9375 11.6875 C33.26009766 12.40357422 32.58269531 13.11964844 31.88476562 13.85742188 C27.64329137 18.32575626 23.32706943 22.70818919 18.9375 27.03125 C16.27221795 29.73952047 13.78467951 32.58454057 11.3125 35.46875 C10.56874537 36.33646374 9.8081145 37.1918855 9 38 C7.07332493 38.08748207 5.14348139 38.10697334 3.21484375 38.09765625 C1.46010742 38.09282227 1.46010742 38.09282227 -0.33007812 38.08789062 C-2.17762695 38.07532227 -2.17762695 38.07532227 -4.0625 38.0625 C-5.91584961 38.05573242 -5.91584961 38.05573242 -7.80664062 38.04882812 C-10.87114117 38.03699608 -13.93554721 38.02051173 -17 38 C-16.36241893 33.67489758 -14.82448663 30.22541625 -12.91015625 26.30859375 C-12.45327675 25.36790794 -12.45327675 25.36790794 -11.98716736 24.40821838 C-11.01765463 22.4153044 -10.04020409 20.42640605 -9.0625 18.4375 C-8.4089814 17.0972605 -7.75598132 15.75676802 -7.10351562 14.41601562 C-4.75693041 9.59997615 -2.39587407 4.79174815 0 0 Z " fill="#000000" transform="translate(1243,169)"/>
</svg>
